<?xml version="1.0" standalone="no"?>
<!DOCTYPE svg PUBLIC "-//W3C//DTD SVG 20010904//EN"
 "http://www.w3.org/TR/2001/REC-SVG-20010904/DTD/svg10.dtd">
<svg version="1.0" xmlns="http://www.w3.org/2000/svg"
 width="386.000000pt" height="386.000000pt" viewBox="0 0 386.000000 386.000000"
 preserveAspectRatio="xMidYMid meet">
<metadata>
Created by potrace 1.14, written by Peter Selinger 2001-2017
</metadata>
<g transform="translate(0.000000,386.000000) scale(0.100000,-0.100000)"
fill="#000000" stroke="none">
<path d="M3744 3795 c-50 -13 -101 -26 -115 -29 -35 -7 -473 -118 -477 -122
-3 -2 22 -27 116 -111 l32 -29 -62 -55 c-34 -29 -69 -61 -78 -69 -8 -8 -101
-91 -205 -185 -105 -93 -195 -174 -201 -180 -43 -39 -208 -189 -304 -275 -63
-56 -137 -124 -165 -149 -27 -25 -88 -80 -135 -121 -47 -41 -97 -86 -111 -100
-14 -14 -61 -56 -104 -95 -110 -99 -124 -111 -182 -162 l-53 -45 -97 88 c-105
93 -138 123 -253 224 -94 82 -157 138 -248 219 -39 35 -80 71 -90 80 -11 9
-52 45 -92 81 -40 36 -81 71 -91 78 -16 11 -54 -40 -406 -539 -213 -303 -387
-554 -386 -557 9 -34 87 -249 92 -254 3 -4 40 41 82 100 218 309 574 810 590
830 l17 23 134 -117 c73 -64 149 -131 168 -148 19 -17 71 -62 115 -101 44 -38
82 -72 85 -75 7 -7 238 -211 320 -282 l66 -57 56 52 c31 29 71 66 90 82 18 17
74 66 123 110 50 44 94 85 100 91 5 5 51 46 100 90 50 43 92 82 95 85 5 6 71
65 209 189 46 41 96 86 111 100 15 14 45 41 66 59 22 19 86 78 144 130 58 52
123 110 145 130 144 129 241 217 245 222 3 3 49 44 102 92 54 47 114 101 135
120 60 55 86 77 92 77 3 0 35 -27 71 -60 36 -33 68 -60 72 -60 4 0 14 24 22
53 36 125 166 590 166 594 0 5 -12 3 -106 -22z"/>
<path d="M1347 3674 c-278 -46 -499 -134 -711 -282 -355 -246 -573 -621 -624
-1069 -13 -110 -3 -434 13 -451 3 -4 75 97 455 643 172 248 316 453 319 457 6
6 28 -12 136 -111 22 -20 159 -144 305 -276 146 -132 270 -244 276 -250 115
-104 179 -161 186 -163 7 -3 158 126 193 164 5 6 147 134 315 285 168 150 321
288 340 305 19 18 44 41 56 51 12 10 59 52 105 94 46 42 98 88 114 102 l30 26
-35 33 c-19 19 -66 56 -105 84 -266 194 -532 304 -865 360 -75 12 -425 11
-503 -2z"/>
<path d="M3084 2782 c-22 -20 -58 -52 -80 -71 -21 -18 -59 -52 -84 -75 -25
-22 -83 -75 -130 -116 -47 -41 -87 -77 -90 -80 -3 -3 -43 -39 -90 -80 -128
-113 -150 -133 -176 -157 l-24 -22 0 -700 c0 -653 1 -700 17 -694 9 4 55 33
101 64 360 245 600 532 701 837 55 166 66 236 66 422 0 176 -14 266 -66 441
-30 100 -85 248 -97 261 -4 4 -25 -10 -48 -30z"/>
<path d="M758 2227 c-40 -57 -143 -203 -228 -325 -85 -122 -193 -275 -239
-339 -109 -153 -109 -153 -80 -195 181 -259 431 -477 690 -600 128 -61 373
-138 382 -120 2 4 3 294 2 644 l-1 637 -30 28 c-16 15 -97 89 -179 163 -83 74
-168 151 -190 172 -22 21 -43 38 -47 38 -4 0 -40 -46 -80 -103z"/>
<path d="M2255 2041 c-16 -17 -73 -67 -125 -112 -52 -45 -122 -106 -155 -134
-283 -247 -267 -235 -287 -221 -10 7 -33 26 -51 42 -54 50 -247 214 -250 214
-2 0 -5 -381 -6 -847 -1 -467 -3 -867 -4 -891 -2 -31 2 -42 13 -43 8 -1 26 -3
40 -5 56 -8 304 -10 372 -3 100 10 182 20 189 25 3 2 21 6 40 9 55 9 226 68
250 86 l23 17 -2 528 c-1 291 -1 717 -2 947 0 229 -3 417 -7 417 -5 0 -21 -13
-38 -29z"/>
</g>
</svg>
